<svg width="16" height="16" viewBox="0 0 16 16" fill="none" xmlns="http://www.w3.org/2000/svg">
<path fill-rule="evenodd" clip-rule="evenodd" d="M2.5 3.25C2.5 3.05109 2.57902 2.86032 2.71967 2.71967C2.86032 2.57902 3.05109 2.5 3.25 2.5C3.44891 2.5 3.63968 2.57902 3.78033 2.71967C3.92098 2.86032 4 3.05109 4 3.25C4 3.44891 3.92098 3.63968 3.78033 3.78033C3.63968 3.92098 3.44891 4 3.25 4C3.05109 4 2.86032 3.92098 2.71967 3.78033C2.57902 3.63968 2.5 3.44891 2.5 3.25ZM3.25 1C2.71889 0.999545 2.20475 1.18698 1.79854 1.52914C1.39234 1.8713 1.12026 2.34612 1.03047 2.86958C0.940668 3.39304 1.03894 3.93139 1.30788 4.38937C1.57683 4.84734 1.99911 5.19542 2.5 5.372V10.628C1.99931 10.8049 1.57729 11.1532 1.30855 11.6112C1.0398 12.0692 0.94163 12.6075 1.03139 13.1309C1.12115 13.6542 1.39305 14.1291 1.79904 14.4713C2.20503 14.8136 2.71897 15.0014 3.25 15.0014C3.78103 15.0014 4.29497 14.8136 4.70096 14.4713C5.10695 14.1291 5.37885 13.6542 5.46861 13.1309C5.55837 12.6075 5.4602 12.0692 5.19145 11.6112C4.92271 11.1532 4.50069 10.8049 4 10.628V5.372C4.50089 5.19542 4.92317 4.84734 5.19212 4.38937C5.46106 3.93139 5.55933 3.39304 5.46953 2.86958C5.37974 2.34612 5.10766 1.8713 4.70146 1.52914C4.29525 1.18698 3.78111 0.999545 3.25 1ZM3.25 12C3.05109 12 2.86032 12.079 2.71967 12.2197C2.57902 12.3603 2.5 12.5511 2.5 12.75C2.5 12.9489 2.57902 13.1397 2.71967 13.2803C2.86032 13.421 3.05109 13.5 3.25 13.5C3.44891 13.5 3.63968 13.421 3.78033 13.2803C3.92098 13.1397 4 12.9489 4 12.75C4 12.5511 3.92098 12.3603 3.78033 12.2197C3.63968 12.079 3.44891 12 3.25 12ZM12.75 15C13.3467 15 13.919 14.7629 14.341 14.341C14.7629 13.919 15 13.3467 15 12.75C15 12.1533 14.7629 11.581 14.341 11.159C13.919 10.7371 13.3467 10.5 12.75 10.5C12.1533 10.5 11.581 10.7371 11.159 11.159C10.7371 11.581 10.5 12.1533 10.5 12.75C10.5 13.3467 10.7371 13.919 11.159 14.341C11.581 14.7629 12.1533 15 12.75 15ZM12.75 12C12.5511 12 12.3603 12.079 12.2197 12.2197C12.079 12.3603 12 12.5511 12 12.75C12 12.9489 12.079 13.1397 12.2197 13.2803C12.3603 13.421 12.5511 13.5 12.75 13.5C12.9489 13.5 13.1397 13.421 13.2803 13.2803C13.421 13.1397 13.5 12.9489 13.5 12.75C13.5 12.5511 13.421 12.3603 13.2803 12.2197C13.1397 12.079 12.9489 12 12.75 12Z" fill="black"/>
<path d="M14 7.5C14 7.83152 13.8683 8.14946 13.6339 8.38388C13.3995 8.6183 13.0815 8.75 12.75 8.75C12.4185 8.75 12.1005 8.6183 11.8661 8.38388C11.6317 8.14946 11.5 7.83152 11.5 7.5C11.5 7.16848 11.6317 6.85054 11.8661 6.61612C12.1005 6.3817 12.4185 6.25 12.75 6.25C13.0815 6.25 13.3995 6.3817 13.6339 6.61612C13.8683 6.85054 14 7.16848 14 7.5ZM14 3.25C14 3.58152 13.8683 3.89946 13.6339 4.13388C13.3995 4.3683 13.0815 4.5 12.75 4.5C12.4185 4.5 12.1005 4.3683 11.8661 4.13388C11.6317 3.89946 11.5 3.58152 11.5 3.25C11.5 2.91848 11.6317 2.60054 11.8661 2.36612C12.1005 2.1317 12.4185 2 12.75 2C13.0815 2 13.3995 2.1317 13.6339 2.36612C13.8683 2.60054 14 2.91848 14 3.25Z" fill="black"/>
</svg>
